<svg width="682" height="329" viewBox="0 0 682 329" fill="none" xmlns="http://www.w3.org/2000/svg">
<rect x="0.5" y="0.5" width="681" height="328" rx="9.5" stroke="#3A3A3E" stroke-dasharray="20 20"/>
<path d="M253.312 264.318V274.5H251.78V265.631H246.988V274.5H245.456V264.318H253.312ZM255.661 274.5V264.318H259.29C260.082 264.318 260.738 264.462 261.259 264.751C261.779 265.039 262.168 265.433 262.427 265.934C262.685 266.431 262.815 266.991 262.815 267.614C262.815 268.241 262.684 268.804 262.422 269.305C262.163 269.802 261.772 270.196 261.249 270.488C260.728 270.776 260.074 270.92 259.285 270.92H256.789V269.618H259.146C259.646 269.618 260.052 269.532 260.364 269.359C260.675 269.184 260.904 268.945 261.05 268.643C261.196 268.342 261.269 267.999 261.269 267.614C261.269 267.23 261.196 266.888 261.05 266.59C260.904 266.292 260.674 266.058 260.359 265.889C260.047 265.72 259.636 265.636 259.126 265.636H257.197V274.5H255.661ZM264.616 264.318H266.137V271.795H266.231L271.412 264.318H272.834V274.5H271.297V267.033H271.203L266.033 274.5H264.616V264.318ZM281.115 274.5L277.695 269.936H276.611V274.5H275.075V264.318H276.611V268.619H277.113L280.961 264.318H282.835L278.764 268.877L282.989 274.5H281.115ZM284.413 274.5V264.318H288.042C288.834 264.318 289.49 264.462 290.011 264.751C290.531 265.039 290.92 265.433 291.179 265.934C291.437 266.431 291.567 266.991 291.567 267.614C291.567 268.241 291.436 268.804 291.174 269.305C290.915 269.802 290.524 270.196 290.001 270.488C289.48 270.776 288.826 270.92 288.037 270.92H285.541V269.618H287.898C288.398 269.618 288.804 269.532 289.116 269.359C289.427 269.184 289.656 268.945 289.802 268.643C289.948 268.342 290.021 267.999 290.021 267.614C290.021 267.23 289.948 266.888 289.802 266.59C289.656 266.292 289.426 266.058 289.111 265.889C288.799 265.72 288.388 265.636 287.878 265.636H285.949V274.5H284.413ZM293.368 274.5V264.318H299.751V265.641H294.904V268.743H299.418V270.06H294.904V273.178H299.811V274.5H293.368ZM309.763 264.318V274.5H308.231V265.631H303.439V274.5H301.908V264.318H309.763ZM312.112 264.318H313.633V271.795H313.728L318.908 264.318H320.33V274.5H318.794V267.033H318.699L313.529 274.5H312.112V264.318ZM322.069 265.641V264.318H329.949V265.641H326.772V274.5H325.241V265.641H322.069ZM332.769 268.425H335.513C336.269 268.425 336.912 268.547 337.442 268.793C337.972 269.038 338.377 269.384 338.655 269.832C338.937 270.279 339.076 270.806 339.073 271.413C339.076 272.019 338.937 272.554 338.655 273.018C338.377 273.482 337.972 273.845 337.442 274.107C336.912 274.369 336.269 274.5 335.513 274.5H331.7V264.318H333.241V273.207H335.513C335.954 273.207 336.325 273.121 336.627 272.949C336.932 272.777 337.162 272.553 337.318 272.278C337.477 272.003 337.556 271.708 337.556 271.393C337.556 270.935 337.381 270.543 337.029 270.214C336.678 269.883 336.173 269.717 335.513 269.717H332.769V268.425ZM348.325 265.491H350.159C350.935 265.491 351.623 265.662 352.223 266.004C352.826 266.342 353.298 266.817 353.639 267.43C353.984 268.04 354.157 268.75 354.157 269.558C354.157 270.36 353.984 271.065 353.639 271.671C353.298 272.278 352.826 272.752 352.223 273.093C351.623 273.431 350.935 273.6 350.159 273.6H348.325C347.549 273.6 346.86 273.433 346.257 273.098C345.653 272.76 345.179 272.289 344.835 271.686C344.493 271.083 344.323 270.379 344.323 269.573C344.323 268.761 344.495 268.049 344.84 267.435C345.184 266.822 345.657 266.345 346.257 266.004C346.86 265.662 347.549 265.491 348.325 265.491ZM348.325 266.819C347.795 266.819 347.342 266.93 346.968 267.152C346.593 267.371 346.306 267.686 346.108 268.097C345.909 268.508 345.809 269 345.809 269.573C345.809 270.133 345.909 270.616 346.108 271.02C346.31 271.421 346.598 271.731 346.973 271.95C347.347 272.165 347.798 272.273 348.325 272.273H350.164C350.691 272.273 351.14 272.165 351.512 271.95C351.886 271.731 352.171 271.419 352.367 271.015C352.566 270.607 352.665 270.122 352.665 269.558C352.665 268.991 352.566 268.504 352.367 268.097C352.171 267.686 351.886 267.371 351.512 267.152C351.14 266.93 350.691 266.819 350.164 266.819H348.325ZM350 264.139V274.918H348.494V264.139H350ZM356.421 274.5H354.79L358.454 264.318H360.229L363.893 274.5H362.263L359.384 266.168H359.305L356.421 274.5ZM356.695 270.513H361.984V271.805H356.695V270.513ZM365.364 264.318H366.885V271.795H366.979L372.16 264.318H373.582V274.5H372.046V267.033H371.951L366.781 274.5H365.364V264.318ZM370.45 261.733H371.673C371.673 262.293 371.474 262.749 371.076 263.1C370.682 263.448 370.148 263.622 369.475 263.622C368.806 263.622 368.274 263.448 367.879 263.1C367.485 262.749 367.288 262.293 367.288 261.733H368.506C368.506 261.982 368.579 262.202 368.725 262.394C368.87 262.583 369.121 262.678 369.475 262.678C369.823 262.678 370.072 262.583 370.221 262.394C370.373 262.205 370.45 261.985 370.45 261.733ZM375.052 274.5V273.168L375.35 273.158C375.755 273.148 376.073 273.01 376.305 272.745C376.54 272.48 376.711 272.052 376.817 271.462C376.926 270.872 376.999 270.085 377.036 269.101L377.21 264.318H383.648V274.5H382.132V265.621H378.657L378.497 269.509C378.454 270.599 378.345 271.515 378.169 272.258C377.994 272.997 377.695 273.555 377.274 273.933C376.857 274.311 376.262 274.5 375.49 274.5H375.052Z" fill="white"/>
<line x1="405.5" y1="239.5" x2="405.5" y2="298.5" stroke="#3A3A3E"/>
<path d="M431 263V275" stroke="#DE1829" stroke-width="2"/>
<path d="M437 269H425" stroke="#DE1829" stroke-width="2"/>
<rect x="224.5" y="239.5" width="232" height="59" rx="4.5" stroke="#3A3A3E"/>
<path d="M212.985 35.9932V51H211.814V36.96H201.803V51H200.643V35.9932H212.985ZM224.351 49.8828C223.763 50.334 223.162 50.667 222.546 50.8818C221.93 51.0895 221.264 51.1934 220.548 51.1934C219.832 51.1934 219.169 51.0645 218.561 50.8066C217.959 50.5417 217.44 50.1764 217.003 49.7109C216.566 49.2454 216.226 48.6904 215.982 48.0459C215.739 47.4014 215.617 46.6995 215.617 45.9404C215.617 45.2171 215.728 44.5511 215.95 43.9424C216.179 43.3265 216.494 42.7965 216.896 42.3525C217.304 41.9014 217.784 41.5505 218.335 41.2998C218.894 41.0492 219.499 40.9238 220.15 40.9238C220.68 40.9238 221.203 41.0169 221.719 41.2031C222.242 41.3893 222.711 41.6794 223.126 42.0732C223.541 42.46 223.878 42.9541 224.136 43.5557C224.394 44.1501 224.522 44.8626 224.522 45.6934H216.734C216.72 45.7865 216.713 45.8724 216.713 45.9512V46.209C216.713 46.7747 216.82 47.2975 217.035 47.7773C217.25 48.2572 217.54 48.6761 217.905 49.0342C218.271 49.3851 218.693 49.6608 219.173 49.8613C219.653 50.0618 220.154 50.1621 220.677 50.1621C221.336 50.1621 221.951 50.0475 222.524 49.8184C223.104 49.582 223.713 49.2061 224.351 48.6904V49.8828ZM223.276 44.8447C222.897 42.9183 221.855 41.9551 220.15 41.9551C219.742 41.9551 219.359 42.0231 219.001 42.1592C218.643 42.2881 218.321 42.4779 218.034 42.7285C217.755 42.972 217.515 43.2728 217.314 43.6309C217.114 43.9889 216.967 44.3936 216.874 44.8447H223.276ZM227.724 41.6758C228.003 41.5397 228.268 41.4251 228.519 41.332C228.769 41.2318 229.013 41.153 229.249 41.0957C229.485 41.0384 229.722 40.9954 229.958 40.9668C230.194 40.9382 230.441 40.9238 230.699 40.9238C231.401 40.9238 232.049 41.0527 232.644 41.3105C233.245 41.5612 233.761 41.9157 234.19 42.374C234.627 42.8252 234.967 43.3623 235.211 43.9854C235.454 44.6084 235.576 45.2887 235.576 46.0264C235.576 46.7497 235.447 47.4264 235.189 48.0566C234.939 48.6868 234.591 49.2347 234.147 49.7002C233.711 50.1657 233.191 50.5309 232.59 50.7959C231.995 51.0609 231.351 51.1934 230.656 51.1934C230.413 51.1934 230.173 51.179 229.937 51.1504C229.707 51.1289 229.475 51.0859 229.238 51.0215C229.009 50.9642 228.769 50.889 228.519 50.7959C228.268 50.7028 228.003 50.5882 227.724 50.4521V56.0596H226.671V41.1172H227.724V41.6758ZM227.724 49.4209C227.981 49.557 228.221 49.6715 228.443 49.7646C228.665 49.8577 228.884 49.9365 229.099 50.001C229.313 50.0583 229.528 50.1012 229.743 50.1299C229.965 50.1514 230.201 50.1621 230.452 50.1621C231.047 50.1621 231.587 50.0654 232.074 49.8721C232.561 49.6787 232.977 49.4066 233.32 49.0557C233.671 48.6976 233.94 48.2715 234.126 47.7773C234.319 47.276 234.416 46.721 234.416 46.1123C234.416 45.5107 234.312 44.9557 234.104 44.4473C233.904 43.9388 233.621 43.502 233.256 43.1367C232.898 42.7643 232.468 42.4743 231.967 42.2666C231.465 42.0589 230.918 41.9551 230.323 41.9551C230.101 41.9551 229.89 41.9694 229.689 41.998C229.489 42.0195 229.285 42.0589 229.077 42.1162C228.877 42.1735 228.665 42.2487 228.443 42.3418C228.221 42.4349 227.981 42.5495 227.724 42.6855V49.4209ZM246.114 49.8828C245.527 50.334 244.925 50.667 244.31 50.8818C243.694 51.0895 243.028 51.1934 242.312 51.1934C241.595 51.1934 240.933 51.0645 240.324 50.8066C239.723 50.5417 239.203 50.1764 238.767 49.7109C238.33 49.2454 237.99 48.6904 237.746 48.0459C237.503 47.4014 237.381 46.6995 237.381 45.9404C237.381 45.2171 237.492 44.5511 237.714 43.9424C237.943 43.3265 238.258 42.7965 238.659 42.3525C239.067 41.9014 239.547 41.5505 240.099 41.2998C240.657 41.0492 241.262 40.9238 241.914 40.9238C242.444 40.9238 242.967 41.0169 243.482 41.2031C244.005 41.3893 244.474 41.6794 244.89 42.0732C245.305 42.46 245.642 42.9541 245.899 43.5557C246.157 44.1501 246.286 44.8626 246.286 45.6934H238.498C238.484 45.7865 238.477 45.8724 238.477 45.9512V46.209C238.477 46.7747 238.584 47.2975 238.799 47.7773C239.014 48.2572 239.304 48.6761 239.669 49.0342C240.034 49.3851 240.457 49.6608 240.937 49.8613C241.416 50.0618 241.918 50.1621 242.44 50.1621C243.099 50.1621 243.715 50.0475 244.288 49.8184C244.868 49.582 245.477 49.2061 246.114 48.6904V49.8828ZM245.04 44.8447C244.66 42.9183 243.618 41.9551 241.914 41.9551C241.506 41.9551 241.123 42.0231 240.765 42.1592C240.407 42.2881 240.084 42.4779 239.798 42.7285C239.519 42.972 239.279 43.2728 239.078 43.6309C238.878 43.9889 238.731 44.3936 238.638 44.8447H245.04ZM257.082 41.1172V42.0947H252.678V51H251.625V42.0947H247.221V41.1172H257.082ZM265.901 51H264.849V46.9072H263.194C262.829 46.9072 262.507 46.943 262.228 47.0146C261.948 47.0863 261.69 47.1973 261.454 47.3477C261.225 47.498 261.007 47.6914 260.799 47.9277C260.598 48.1569 260.391 48.4326 260.176 48.7549L258.683 51H257.404L259.123 48.4219C259.238 48.25 259.367 48.0745 259.51 47.8955C259.66 47.7165 259.814 47.5518 259.972 47.4014C260.129 47.2438 260.287 47.1077 260.444 46.9932C260.609 46.8714 260.763 46.7855 260.906 46.7354C260.126 46.4919 259.553 46.1266 259.188 45.6396C258.822 45.1527 258.64 44.5404 258.64 43.8027C258.64 43.3444 258.74 42.9469 258.94 42.6104C259.141 42.2738 259.42 41.9945 259.778 41.7725C260.144 41.5505 260.573 41.3857 261.067 41.2783C261.569 41.1709 262.117 41.1172 262.711 41.1172H265.901V51ZM264.849 46.0479V41.9766H262.926C262.475 41.9766 262.056 42.0016 261.669 42.0518C261.282 42.0947 260.946 42.1914 260.659 42.3418C260.38 42.485 260.158 42.6891 259.993 42.9541C259.836 43.2119 259.757 43.5557 259.757 43.9854C259.757 44.279 259.803 44.5547 259.896 44.8125C259.997 45.0632 260.144 45.2816 260.337 45.4678C260.537 45.6468 260.788 45.79 261.089 45.8975C261.39 45.9977 261.748 46.0479 262.163 46.0479H264.849ZM276.858 41.1172V51H275.806V46.2949H269.683V51H268.63V41.1172H269.683V45.4355H275.806V41.1172H276.858ZM286.763 42.9434L280.178 51.0859H279.587V41.1172H280.64V49.1953L287.225 41.1172H287.815V51H286.763V42.9434ZM299.213 41.1172V42.0947H294.809V51H293.756V42.0947H289.352V41.1172H299.213ZM309.021 49.8828C308.433 50.334 307.832 50.667 307.216 50.8818C306.6 51.0895 305.934 51.1934 305.218 51.1934C304.502 51.1934 303.839 51.0645 303.23 50.8066C302.629 50.5417 302.11 50.1764 301.673 49.7109C301.236 49.2454 300.896 48.6904 300.652 48.0459C300.409 47.4014 300.287 46.6995 300.287 45.9404C300.287 45.2171 300.398 44.5511 300.62 43.9424C300.849 43.3265 301.164 42.7965 301.565 42.3525C301.974 41.9014 302.453 41.5505 303.005 41.2998C303.563 41.0492 304.169 40.9238 304.82 40.9238C305.35 40.9238 305.873 41.0169 306.389 41.2031C306.911 41.3893 307.381 41.6794 307.796 42.0732C308.211 42.46 308.548 42.9541 308.806 43.5557C309.063 44.1501 309.192 44.8626 309.192 45.6934H301.404C301.39 45.7865 301.383 45.8724 301.383 45.9512V46.209C301.383 46.7747 301.49 47.2975 301.705 47.7773C301.92 48.2572 302.21 48.6761 302.575 49.0342C302.94 49.3851 303.363 49.6608 303.843 49.8613C304.323 50.0618 304.824 50.1621 305.347 50.1621C306.006 50.1621 306.621 50.0475 307.194 49.8184C307.774 49.582 308.383 49.2061 309.021 48.6904V49.8828ZM307.946 44.8447C307.567 42.9183 306.525 41.9551 304.82 41.9551C304.412 41.9551 304.029 42.0231 303.671 42.1592C303.313 42.2881 302.991 42.4779 302.704 42.7285C302.425 42.972 302.185 43.2728 301.984 43.6309C301.784 43.9889 301.637 44.3936 301.544 44.8447H307.946ZM324.597 50.6885C324.317 50.7816 324.06 50.8604 323.823 50.9248C323.587 50.9893 323.361 51.0394 323.146 51.0752C322.932 51.1182 322.717 51.1468 322.502 51.1611C322.294 51.1826 322.076 51.1934 321.847 51.1934C321.116 51.1934 320.454 51.0752 319.859 50.8389C319.265 50.5954 318.757 50.2552 318.334 49.8184C317.911 49.3815 317.582 48.8587 317.346 48.25C317.117 47.6341 317.002 46.9538 317.002 46.209C317.002 45.4355 317.12 44.7266 317.356 44.082C317.593 43.4303 317.922 42.8717 318.345 42.4062C318.767 41.9336 319.272 41.5684 319.859 41.3105C320.447 41.0527 321.091 40.9238 321.793 40.9238C322.008 40.9238 322.212 40.9346 322.405 40.9561C322.606 40.9704 322.806 40.999 323.007 41.042C323.215 41.0778 323.429 41.1279 323.651 41.1924C323.881 41.2497 324.135 41.3213 324.414 41.4072V42.5781C324.128 42.4564 323.87 42.3561 323.641 42.2773C323.419 42.1986 323.207 42.1341 323.007 42.084C322.813 42.0339 322.624 42.0016 322.438 41.9873C322.251 41.9658 322.054 41.9551 321.847 41.9551C321.295 41.9551 320.79 42.0553 320.332 42.2559C319.874 42.4564 319.48 42.7393 319.15 43.1045C318.828 43.4626 318.574 43.8958 318.388 44.4043C318.209 44.9128 318.119 45.4749 318.119 46.0908C318.119 46.7139 318.209 47.276 318.388 47.7773C318.567 48.2786 318.821 48.7083 319.15 49.0664C319.48 49.4173 319.881 49.6895 320.354 49.8828C320.826 50.069 321.353 50.1621 321.933 50.1621C322.162 50.1621 322.377 50.1549 322.577 50.1406C322.778 50.1191 322.982 50.0869 323.189 50.0439C323.397 49.9938 323.612 49.9329 323.834 49.8613C324.063 49.7897 324.317 49.7002 324.597 49.5928V50.6885ZM327.852 45.6719H329.409C329.452 44.9844 329.606 44.3506 329.871 43.7705C330.143 43.1904 330.501 42.6891 330.945 42.2666C331.396 41.8441 331.916 41.5146 332.503 41.2783C333.097 41.042 333.738 40.9238 334.426 40.9238C335.149 40.9238 335.815 41.0563 336.424 41.3213C337.04 41.5791 337.57 41.9372 338.014 42.3955C338.458 42.8538 338.805 43.3981 339.056 44.0283C339.313 44.6514 339.442 45.3317 339.442 46.0693C339.442 46.7998 339.313 47.4801 339.056 48.1104C338.805 48.7334 338.458 49.2741 338.014 49.7324C337.57 50.1908 337.04 50.5488 336.424 50.8066C335.815 51.0645 335.149 51.1934 334.426 51.1934C333.745 51.1934 333.112 51.0788 332.524 50.8496C331.937 50.6133 331.422 50.291 330.978 49.8828C330.534 49.4674 330.175 48.9733 329.903 48.4004C329.631 47.8275 329.466 47.2044 329.409 46.5312H327.852V51H326.788V41.1172H327.852V45.6719ZM338.325 46.0693C338.325 45.4821 338.225 44.9378 338.024 44.4365C337.831 43.9352 337.559 43.502 337.208 43.1367C336.857 42.7643 336.445 42.4743 335.973 42.2666C335.5 42.0589 334.984 41.9551 334.426 41.9551C333.867 41.9551 333.348 42.0589 332.868 42.2666C332.388 42.4743 331.973 42.7607 331.622 43.126C331.271 43.4912 330.995 43.9245 330.795 44.4258C330.602 44.9271 330.505 45.4749 330.505 46.0693C330.505 46.6566 330.602 47.2008 330.795 47.7021C330.995 48.2035 331.271 48.6367 331.622 49.002C331.973 49.3672 332.388 49.6536 332.868 49.8613C333.348 50.0618 333.867 50.1621 334.426 50.1621C334.984 50.1621 335.5 50.0618 335.973 49.8613C336.445 49.6536 336.857 49.3672 337.208 49.002C337.559 48.6367 337.831 48.2035 338.024 47.7021C338.225 47.2008 338.325 46.6566 338.325 46.0693ZM350.808 50.1406V53.5996H349.841V51H341.569V53.5996H340.592V50.1406H341.365L345.479 40.9238H346.146L350.034 50.1406H350.808ZM345.77 42.6855L342.45 50.1406H348.981L345.77 42.6855ZM357.586 43.8242C357.586 42.4779 356.855 41.8047 355.395 41.8047C355.13 41.8047 354.875 41.8298 354.632 41.8799C354.396 41.9229 354.156 41.998 353.912 42.1055C353.676 42.2057 353.432 42.3346 353.182 42.4922C352.931 42.6497 352.662 42.8395 352.376 43.0615V41.9766C352.677 41.7904 352.963 41.6328 353.235 41.5039C353.507 41.3678 353.769 41.2568 354.02 41.1709C354.277 41.085 354.532 41.0241 354.782 40.9883C355.04 40.9453 355.301 40.9238 355.566 40.9238C355.882 40.9238 356.218 40.9632 356.576 41.042C356.934 41.1136 357.267 41.2461 357.575 41.4395C357.883 41.6328 358.137 41.8978 358.338 42.2344C358.546 42.5638 358.649 42.9863 358.649 43.502V49.6572C358.649 49.8577 358.667 49.9938 358.703 50.0654C358.739 50.1299 358.8 50.1621 358.886 50.1621C358.943 50.1621 359.025 50.137 359.133 50.0869C359.24 50.0296 359.358 49.9616 359.487 49.8828C359.616 49.7969 359.749 49.7038 359.885 49.6035C360.028 49.4961 360.164 49.3887 360.293 49.2812V50.1621L360.121 50.291C359.87 50.4772 359.656 50.6312 359.477 50.7529C359.298 50.8675 359.136 50.957 358.993 51.0215C358.857 51.0859 358.732 51.1289 358.617 51.1504C358.51 51.179 358.402 51.1934 358.295 51.1934C358.18 51.1934 358.08 51.1755 357.994 51.1396C357.915 51.1038 357.847 51.043 357.79 50.957C357.74 50.8639 357.697 50.7386 357.661 50.5811C357.632 50.4163 357.607 50.2122 357.586 49.9688C357.027 50.3984 356.505 50.71 356.018 50.9033C355.538 51.0967 355.029 51.1934 354.492 51.1934C354.12 51.1934 353.769 51.1289 353.439 51C353.117 50.8639 352.834 50.6849 352.591 50.4629C352.354 50.2337 352.168 49.9688 352.032 49.668C351.896 49.36 351.828 49.0342 351.828 48.6904C351.828 48.2607 351.903 47.8776 352.054 47.541C352.204 47.1973 352.412 46.8965 352.677 46.6387C352.949 46.3737 353.264 46.1517 353.622 45.9727C353.987 45.7865 354.381 45.6325 354.804 45.5107C355.233 45.3818 355.685 45.2852 356.157 45.2207C356.63 45.1491 357.106 45.1025 357.586 45.0811V43.8242ZM357.586 45.9619C356.941 45.9333 356.333 45.9798 355.76 46.1016C355.194 46.2161 354.696 46.3952 354.267 46.6387C353.844 46.8822 353.507 47.1794 353.257 47.5303C353.006 47.874 352.881 48.2607 352.881 48.6904C352.881 48.9196 352.931 49.1344 353.031 49.335C353.132 49.5355 353.268 49.7109 353.439 49.8613C353.611 50.0046 353.815 50.1191 354.052 50.2051C354.295 50.2839 354.557 50.3232 354.836 50.3232C355.072 50.3232 355.298 50.3018 355.513 50.2588C355.735 50.2087 355.953 50.1335 356.168 50.0332C356.39 49.9258 356.616 49.7933 356.845 49.6357C357.081 49.471 357.328 49.2741 357.586 49.0449V45.9619ZM375.063 50.6885C374.784 50.7816 374.526 50.8604 374.29 50.9248C374.054 50.9893 373.828 51.0394 373.613 51.0752C373.398 51.1182 373.184 51.1468 372.969 51.1611C372.761 51.1826 372.543 51.1934 372.313 51.1934C371.583 51.1934 370.921 51.0752 370.326 50.8389C369.732 50.5954 369.223 50.2552 368.801 49.8184C368.378 49.3815 368.049 48.8587 367.812 48.25C367.583 47.6341 367.469 46.9538 367.469 46.209C367.469 45.4355 367.587 44.7266 367.823 44.082C368.06 43.4303 368.389 42.8717 368.812 42.4062C369.234 41.9336 369.739 41.5684 370.326 41.3105C370.913 41.0527 371.558 40.9238 372.26 40.9238C372.475 40.9238 372.679 40.9346 372.872 40.9561C373.073 40.9704 373.273 40.999 373.474 41.042C373.681 41.0778 373.896 41.1279 374.118 41.1924C374.347 41.2497 374.602 41.3213 374.881 41.4072V42.5781C374.594 42.4564 374.337 42.3561 374.107 42.2773C373.885 42.1986 373.674 42.1341 373.474 42.084C373.28 42.0339 373.09 42.0016 372.904 41.9873C372.718 41.9658 372.521 41.9551 372.313 41.9551C371.762 41.9551 371.257 42.0553 370.799 42.2559C370.34 42.4564 369.947 42.7393 369.617 43.1045C369.295 43.4626 369.041 43.8958 368.854 44.4043C368.675 44.9128 368.586 45.4749 368.586 46.0908C368.586 46.7139 368.675 47.276 368.854 47.7773C369.034 48.2786 369.288 48.7083 369.617 49.0664C369.947 49.4173 370.348 49.6895 370.82 49.8828C371.293 50.069 371.819 50.1621 372.399 50.1621C372.629 50.1621 372.843 50.1549 373.044 50.1406C373.244 50.1191 373.449 50.0869 373.656 50.0439C373.864 49.9938 374.079 49.9329 374.301 49.8613C374.53 49.7897 374.784 49.7002 375.063 49.5928V50.6885ZM377.083 51V41.1172H380.402C380.997 41.1172 381.505 41.1924 381.928 41.3428C382.357 41.486 382.708 41.6722 382.98 41.9014C383.26 42.1305 383.464 42.3919 383.593 42.6855C383.729 42.972 383.797 43.2585 383.797 43.5449C383.797 43.7884 383.754 44.0355 383.668 44.2861C383.589 44.5296 383.471 44.7588 383.313 44.9736C383.163 45.1885 382.98 45.3783 382.766 45.543C382.551 45.7077 382.307 45.833 382.035 45.9189C382.773 46.0049 383.339 46.2699 383.732 46.7139C384.126 47.1579 384.323 47.7129 384.323 48.3789C384.323 48.7943 384.237 49.1631 384.065 49.4854C383.894 49.8076 383.654 50.0833 383.346 50.3125C383.038 50.5345 382.673 50.7064 382.25 50.8281C381.827 50.9427 381.366 51 380.864 51H377.083ZM378.136 41.9766V45.5645H380.188C380.617 45.5645 380.986 45.5107 381.294 45.4033C381.609 45.2959 381.867 45.1562 382.067 44.9844C382.275 44.8125 382.425 44.6191 382.519 44.4043C382.619 44.1823 382.669 43.9603 382.669 43.7383C382.669 43.4447 382.604 43.1904 382.476 42.9756C382.347 42.7536 382.164 42.571 381.928 42.4277C381.691 42.2773 381.412 42.1663 381.09 42.0947C380.768 42.016 380.413 41.9766 380.026 41.9766H378.136ZM378.136 46.4238V50.1406H380.821C381.287 50.1406 381.67 50.0833 381.971 49.9688C382.279 49.847 382.522 49.693 382.701 49.5068C382.88 49.3135 383.006 49.0986 383.077 48.8623C383.156 48.626 383.195 48.3861 383.195 48.1426C383.195 47.8346 383.124 47.5732 382.98 47.3584C382.844 47.1364 382.658 46.9574 382.422 46.8213C382.186 46.6852 381.906 46.585 381.584 46.5205C381.269 46.4561 380.929 46.4238 380.563 46.4238H378.136ZM396.021 46.0693C396.021 46.7998 395.893 47.4801 395.635 48.1104C395.384 48.7334 395.037 49.2741 394.593 49.7324C394.149 50.1908 393.619 50.5488 393.003 50.8066C392.394 51.0645 391.728 51.1934 391.005 51.1934C390.289 51.1934 389.623 51.0645 389.007 50.8066C388.391 50.5488 387.857 50.1908 387.406 49.7324C386.955 49.2741 386.601 48.7334 386.343 48.1104C386.092 47.4801 385.967 46.7998 385.967 46.0693C385.967 45.3317 386.092 44.6514 386.343 44.0283C386.601 43.3981 386.955 42.8538 387.406 42.3955C387.857 41.9372 388.391 41.5791 389.007 41.3213C389.623 41.0563 390.289 40.9238 391.005 40.9238C391.728 40.9238 392.394 41.0563 393.003 41.3213C393.619 41.5791 394.149 41.9372 394.593 42.3955C395.037 42.8538 395.384 43.3981 395.635 44.0283C395.893 44.6514 396.021 45.3317 396.021 46.0693ZM394.904 46.0693C394.904 45.4821 394.804 44.9378 394.604 44.4365C394.41 43.9352 394.138 43.502 393.787 43.1367C393.436 42.7643 393.024 42.4743 392.552 42.2666C392.079 42.0589 391.563 41.9551 391.005 41.9551C390.446 41.9551 389.927 42.0589 389.447 42.2666C388.967 42.4743 388.552 42.7607 388.201 43.126C387.85 43.4912 387.575 43.9245 387.374 44.4258C387.181 44.9271 387.084 45.4749 387.084 46.0693C387.084 46.6566 387.181 47.2008 387.374 47.7021C387.575 48.2035 387.85 48.6367 388.201 49.002C388.552 49.3672 388.967 49.6536 389.447 49.8613C389.927 50.0618 390.446 50.1621 391.005 50.1621C391.563 50.1621 392.079 50.0618 392.552 49.8613C393.024 49.6536 393.436 49.3672 393.787 49.002C394.138 48.6367 394.41 48.2035 394.604 47.7021C394.804 47.2008 394.904 46.6566 394.904 46.0693ZM406.581 49.8828C405.994 50.334 405.392 50.667 404.776 50.8818C404.16 51.0895 403.494 51.1934 402.778 51.1934C402.062 51.1934 401.4 51.0645 400.791 50.8066C400.189 50.5417 399.67 50.1764 399.233 49.7109C398.797 49.2454 398.456 48.6904 398.213 48.0459C397.969 47.4014 397.848 46.6995 397.848 45.9404C397.848 45.2171 397.959 44.5511 398.181 43.9424C398.41 43.3265 398.725 42.7965 399.126 42.3525C399.534 41.9014 400.014 41.5505 400.565 41.2998C401.124 41.0492 401.729 40.9238 402.381 40.9238C402.911 40.9238 403.434 41.0169 403.949 41.2031C404.472 41.3893 404.941 41.6794 405.356 42.0732C405.772 42.46 406.108 42.9541 406.366 43.5557C406.624 44.1501 406.753 44.8626 406.753 45.6934H398.965C398.951 45.7865 398.943 45.8724 398.943 45.9512V46.209C398.943 46.7747 399.051 47.2975 399.266 47.7773C399.48 48.2572 399.771 48.6761 400.136 49.0342C400.501 49.3851 400.924 49.6608 401.403 49.8613C401.883 50.0618 402.384 50.1621 402.907 50.1621C403.566 50.1621 404.182 50.0475 404.755 49.8184C405.335 49.582 405.944 49.2061 406.581 48.6904V49.8828ZM405.507 44.8447C405.127 42.9183 404.085 41.9551 402.381 41.9551C401.973 41.9551 401.59 42.0231 401.231 42.1592C400.873 42.2881 400.551 42.4779 400.265 42.7285C399.985 42.972 399.745 43.2728 399.545 43.6309C399.344 43.9889 399.198 44.3936 399.104 44.8447H405.507ZM404.186 37.0029C404.314 37.0029 404.436 37.028 404.551 37.0781C404.673 37.1283 404.776 37.1999 404.862 37.293C404.955 37.3789 405.027 37.4827 405.077 37.6045C405.127 37.7191 405.152 37.8444 405.152 37.9805C405.152 38.2454 405.056 38.4746 404.862 38.668C404.676 38.8542 404.451 38.9473 404.186 38.9473C403.921 38.9473 403.691 38.8542 403.498 38.668C403.312 38.4746 403.219 38.2454 403.219 37.9805C403.219 37.8444 403.244 37.7191 403.294 37.6045C403.344 37.4827 403.412 37.3789 403.498 37.293C403.591 37.1999 403.695 37.1283 403.81 37.0781C403.931 37.028 404.057 37.0029 404.186 37.0029ZM400.286 37.0029C400.415 37.0029 400.537 37.028 400.651 37.0781C400.773 37.1283 400.877 37.1999 400.963 37.293C401.056 37.3789 401.128 37.4827 401.178 37.6045C401.228 37.7191 401.253 37.8444 401.253 37.9805C401.253 38.2454 401.156 38.4746 400.963 38.668C400.777 38.8542 400.551 38.9473 400.286 38.9473C400.021 38.9473 399.792 38.8542 399.599 38.668C399.412 38.4746 399.319 38.2454 399.319 37.9805C399.319 37.8444 399.344 37.7191 399.395 37.6045C399.445 37.4827 399.513 37.3789 399.599 37.293C399.692 37.1999 399.796 37.1283 399.91 37.0781C400.032 37.028 400.157 37.0029 400.286 37.0029ZM416.077 41.6758C416.356 41.5397 416.621 41.4251 416.872 41.332C417.123 41.2318 417.366 41.153 417.603 41.0957C417.839 41.0384 418.075 40.9954 418.312 40.9668C418.548 40.9382 418.795 40.9238 419.053 40.9238C419.755 40.9238 420.403 41.0527 420.997 41.3105C421.599 41.5612 422.114 41.9157 422.544 42.374C422.981 42.8252 423.321 43.3623 423.564 43.9854C423.808 44.6084 423.93 45.2887 423.93 46.0264C423.93 46.7497 423.801 47.4264 423.543 48.0566C423.292 48.6868 422.945 49.2347 422.501 49.7002C422.064 50.1657 421.545 50.5309 420.943 50.7959C420.349 51.0609 419.704 51.1934 419.01 51.1934C418.766 51.1934 418.526 51.179 418.29 51.1504C418.061 51.1289 417.828 51.0859 417.592 51.0215C417.363 50.9642 417.123 50.889 416.872 50.7959C416.621 50.7028 416.356 50.5882 416.077 50.4521V56.0596H415.024V41.1172H416.077V41.6758ZM416.077 49.4209C416.335 49.557 416.575 49.6715 416.797 49.7646C417.019 49.8577 417.237 49.9365 417.452 50.001C417.667 50.0583 417.882 50.1012 418.097 50.1299C418.319 50.1514 418.555 50.1621 418.806 50.1621C419.4 50.1621 419.941 50.0654 420.428 49.8721C420.915 49.6787 421.33 49.4066 421.674 49.0557C422.025 48.6976 422.293 48.2715 422.479 47.7773C422.673 47.276 422.77 46.721 422.77 46.1123C422.77 45.5107 422.666 44.9557 422.458 44.4473C422.257 43.9388 421.975 43.502 421.609 43.1367C421.251 42.7643 420.822 42.4743 420.32 42.2666C419.819 42.0589 419.271 41.9551 418.677 41.9551C418.455 41.9551 418.243 41.9694 418.043 41.998C417.842 42.0195 417.638 42.0589 417.431 42.1162C417.23 42.1735 417.019 42.2487 416.797 42.3418C416.575 42.4349 416.335 42.5495 416.077 42.6855V49.4209ZM434.468 49.8828C433.881 50.334 433.279 50.667 432.663 50.8818C432.047 51.0895 431.381 51.1934 430.665 51.1934C429.949 51.1934 429.286 51.0645 428.678 50.8066C428.076 50.5417 427.557 50.1764 427.12 49.7109C426.683 49.2454 426.343 48.6904 426.1 48.0459C425.856 47.4014 425.734 46.6995 425.734 45.9404C425.734 45.2171 425.845 44.5511 426.067 43.9424C426.297 43.3265 426.612 42.7965 427.013 42.3525C427.421 41.9014 427.901 41.5505 428.452 41.2998C429.011 41.0492 429.616 40.9238 430.268 40.9238C430.798 40.9238 431.32 41.0169 431.836 41.2031C432.359 41.3893 432.828 41.6794 433.243 42.0732C433.659 42.46 433.995 42.9541 434.253 43.5557C434.511 44.1501 434.64 44.8626 434.64 45.6934H426.852C426.837 45.7865 426.83 45.8724 426.83 45.9512V46.209C426.83 46.7747 426.938 47.2975 427.152 47.7773C427.367 48.2572 427.657 48.6761 428.022 49.0342C428.388 49.3851 428.81 49.6608 429.29 49.8613C429.77 50.0618 430.271 50.1621 430.794 50.1621C431.453 50.1621 432.069 50.0475 432.642 49.8184C433.222 49.582 433.83 49.2061 434.468 48.6904V49.8828ZM433.394 44.8447C433.014 42.9183 431.972 41.9551 430.268 41.9551C429.859 41.9551 429.476 42.0231 429.118 42.1592C428.76 42.2881 428.438 42.4779 428.151 42.7285C427.872 42.972 427.632 43.2728 427.432 43.6309C427.231 43.9889 427.084 44.3936 426.991 44.8447H433.394ZM437.733 46.252V45.3926H439.409C439.868 45.3926 440.269 45.3389 440.612 45.2314C440.956 45.1169 441.243 44.9701 441.472 44.791C441.701 44.612 441.873 44.4115 441.987 44.1895C442.102 43.9674 442.159 43.7454 442.159 43.5234C442.159 43.2012 442.095 42.9326 441.966 42.7178C441.837 42.4958 441.654 42.3167 441.418 42.1807C441.182 42.0374 440.895 41.9372 440.559 41.8799C440.222 41.8154 439.846 41.7832 439.431 41.7832C438.894 41.7832 438.353 41.862 437.809 42.0195C437.264 42.1771 436.756 42.3776 436.283 42.6211V41.7188C436.505 41.6113 436.749 41.5111 437.014 41.418C437.279 41.3177 437.558 41.2318 437.852 41.1602C438.145 41.0885 438.446 41.0312 438.754 40.9883C439.062 40.9453 439.366 40.9238 439.667 40.9238C440.125 40.9238 440.569 40.974 440.999 41.0742C441.436 41.1673 441.823 41.3105 442.159 41.5039C442.496 41.6973 442.764 41.9443 442.965 42.2451C443.173 42.5387 443.276 42.8896 443.276 43.2979C443.276 43.57 443.223 43.835 443.115 44.0928C443.015 44.3434 442.879 44.5762 442.707 44.791C442.535 44.9987 442.335 45.1849 442.105 45.3496C441.883 45.5072 441.651 45.6289 441.407 45.7148C441.558 45.7578 441.747 45.8402 441.977 45.9619C442.206 46.0837 442.428 46.252 442.643 46.4668C442.857 46.6745 443.044 46.9323 443.201 47.2402C443.359 47.5482 443.438 47.9134 443.438 48.3359C443.438 48.873 443.305 49.3242 443.04 49.6895C442.782 50.0547 442.453 50.3483 442.052 50.5703C441.658 50.7923 441.228 50.9499 440.763 51.043C440.304 51.1432 439.875 51.1934 439.474 51.1934C438.886 51.1934 438.306 51.1468 437.733 51.0537C437.168 50.9678 436.627 50.8245 436.111 50.624V49.6787C436.627 49.9222 437.15 50.0941 437.68 50.1943C438.21 50.2946 438.765 50.3447 439.345 50.3447C439.703 50.3447 440.057 50.3053 440.408 50.2266C440.766 50.1406 441.085 50.0117 441.364 49.8398C441.644 49.668 441.869 49.446 442.041 49.1738C442.22 48.9017 442.31 48.5794 442.31 48.207C442.31 47.849 442.227 47.5482 442.062 47.3047C441.905 47.054 441.683 46.8499 441.396 46.6924C441.11 46.5348 440.766 46.4238 440.365 46.3594C439.964 46.2878 439.52 46.252 439.033 46.252H437.733ZM446.725 45.6719H448.282C448.325 44.9844 448.479 44.3506 448.744 43.7705C449.016 43.1904 449.374 42.6891 449.818 42.2666C450.27 41.8441 450.789 41.5146 451.376 41.2783C451.97 41.042 452.611 40.9238 453.299 40.9238C454.022 40.9238 454.688 41.0563 455.297 41.3213C455.913 41.5791 456.443 41.9372 456.887 42.3955C457.331 42.8538 457.678 43.3981 457.929 44.0283C458.187 44.6514 458.315 45.3317 458.315 46.0693C458.315 46.7998 458.187 47.4801 457.929 48.1104C457.678 48.7334 457.331 49.2741 456.887 49.7324C456.443 50.1908 455.913 50.5488 455.297 50.8066C454.688 51.0645 454.022 51.1934 453.299 51.1934C452.618 51.1934 451.985 51.0788 451.397 50.8496C450.81 50.6133 450.295 50.291 449.851 49.8828C449.407 49.4674 449.049 48.9733 448.776 48.4004C448.504 47.8275 448.34 47.2044 448.282 46.5312H446.725V51H445.661V41.1172H446.725V45.6719ZM457.198 46.0693C457.198 45.4821 457.098 44.9378 456.897 44.4365C456.704 43.9352 456.432 43.502 456.081 43.1367C455.73 42.7643 455.318 42.4743 454.846 42.2666C454.373 42.0589 453.857 41.9551 453.299 41.9551C452.74 41.9551 452.221 42.0589 451.741 42.2666C451.261 42.4743 450.846 42.7607 450.495 43.126C450.144 43.4912 449.868 43.9245 449.668 44.4258C449.475 44.9271 449.378 45.4749 449.378 46.0693C449.378 46.6566 449.475 47.2008 449.668 47.7021C449.868 48.2035 450.144 48.6367 450.495 49.002C450.846 49.3672 451.261 49.6536 451.741 49.8613C452.221 50.0618 452.74 50.1621 453.299 50.1621C453.857 50.1621 454.373 50.0618 454.846 49.8613C455.318 49.6536 455.73 49.3672 456.081 49.002C456.432 48.6367 456.704 48.2035 456.897 47.7021C457.098 47.2008 457.198 46.6566 457.198 46.0693ZM465.867 49.1309L470.035 41.1172H470.647L471.303 51H470.293L469.788 43.6094L465.867 51L461.871 43.6094L461.452 51H460.442L461.098 41.1172H461.71L465.867 49.1309ZM482.163 49.8828C481.576 50.334 480.974 50.667 480.358 50.8818C479.743 51.0895 479.076 51.1934 478.36 51.1934C477.644 51.1934 476.982 51.0645 476.373 50.8066C475.771 50.5417 475.252 50.1764 474.815 49.7109C474.379 49.2454 474.038 48.6904 473.795 48.0459C473.551 47.4014 473.43 46.6995 473.43 45.9404C473.43 45.2171 473.541 44.5511 473.763 43.9424C473.992 43.3265 474.307 42.7965 474.708 42.3525C475.116 41.9014 475.596 41.5505 476.147 41.2998C476.706 41.0492 477.311 40.9238 477.963 40.9238C478.493 40.9238 479.016 41.0169 479.531 41.2031C480.054 41.3893 480.523 41.6794 480.938 42.0732C481.354 42.46 481.69 42.9541 481.948 43.5557C482.206 44.1501 482.335 44.8626 482.335 45.6934H474.547C474.533 45.7865 474.525 45.8724 474.525 45.9512V46.209C474.525 46.7747 474.633 47.2975 474.848 47.7773C475.062 48.2572 475.353 48.6761 475.718 49.0342C476.083 49.3851 476.506 49.6608 476.985 49.8613C477.465 50.0618 477.966 50.1621 478.489 50.1621C479.148 50.1621 479.764 50.0475 480.337 49.8184C480.917 49.582 481.526 49.2061 482.163 48.6904V49.8828ZM481.089 44.8447C480.709 42.9183 479.667 41.9551 477.963 41.9551C477.555 41.9551 477.172 42.0231 476.813 42.1592C476.455 42.2881 476.133 42.4779 475.847 42.7285C475.567 42.972 475.327 43.2728 475.127 43.6309C474.926 43.9889 474.78 44.3936 474.687 44.8447H481.089ZM252.56 70.9434L245.975 79.0859H245.384V69.1172H246.437V77.1953L253.021 69.1172H253.612V79H252.56V70.9434ZM260.122 68.9238L264.365 79H263.334L259.768 70.6855L256.051 79H254.977L259.467 68.9238H260.122ZM272.905 70.9434L266.32 79.0859H265.729V69.1172H266.782V77.1953L273.367 69.1172H273.958V79H272.905V70.9434ZM291.038 69.1172V79H289.985V69.9766H283.862V79H282.81V69.1172H291.038ZM294.841 69.6758C295.12 69.5397 295.385 69.4251 295.636 69.332C295.886 69.2318 296.13 69.153 296.366 69.0957C296.603 69.0384 296.839 68.9954 297.075 68.9668C297.312 68.9382 297.559 68.9238 297.816 68.9238C298.518 68.9238 299.166 69.0527 299.761 69.3105C300.362 69.5612 300.878 69.9157 301.308 70.374C301.744 70.8252 302.085 71.3623 302.328 71.9854C302.572 72.6084 302.693 73.2887 302.693 74.0264C302.693 74.7497 302.564 75.4264 302.307 76.0566C302.056 76.6868 301.709 77.2347 301.265 77.7002C300.828 78.1657 300.309 78.5309 299.707 78.7959C299.113 79.0609 298.468 79.1934 297.773 79.1934C297.53 79.1934 297.29 79.179 297.054 79.1504C296.825 79.1289 296.592 79.0859 296.355 79.0215C296.126 78.9642 295.886 78.889 295.636 78.7959C295.385 78.7028 295.12 78.5882 294.841 78.4521V84.0596H293.788V69.1172H294.841V69.6758ZM294.841 77.4209C295.099 77.557 295.339 77.6715 295.561 77.7646C295.783 77.8577 296.001 77.9365 296.216 78.001C296.431 78.0583 296.646 78.1012 296.86 78.1299C297.082 78.1514 297.319 78.1621 297.569 78.1621C298.164 78.1621 298.704 78.0654 299.191 77.8721C299.678 77.6787 300.094 77.4066 300.438 77.0557C300.788 76.6976 301.057 76.2715 301.243 75.7773C301.437 75.276 301.533 74.721 301.533 74.1123C301.533 73.5107 301.429 72.9557 301.222 72.4473C301.021 71.9388 300.738 71.502 300.373 71.1367C300.015 70.7643 299.585 70.4743 299.084 70.2666C298.583 70.0589 298.035 69.9551 297.44 69.9551C297.218 69.9551 297.007 69.9694 296.807 69.998C296.606 70.0195 296.402 70.0589 296.194 70.1162C295.994 70.1735 295.783 70.2487 295.561 70.3418C295.339 70.4349 295.099 70.5495 294.841 70.6855V77.4209ZM312.157 70.9434L305.572 79.0859H304.981V69.1172H306.034V77.1953L312.619 69.1172H313.21V79H312.157V70.9434ZM316.927 74.2734V79H315.96V69.1172H316.927V73.4141H317.367C317.568 73.4141 317.765 73.389 317.958 73.3389C318.159 73.2816 318.348 73.1921 318.527 73.0703C318.706 72.9414 318.875 72.7803 319.032 72.5869C319.19 72.3864 319.326 72.1465 319.44 71.8672L319.924 70.6426C320.153 70.0768 320.447 69.6829 320.805 69.4609C321.17 69.2318 321.6 69.1172 322.094 69.1172H322.513V70.0947H322.094C321.922 70.0947 321.771 70.1126 321.643 70.1484C321.514 70.1842 321.399 70.2415 321.299 70.3203C321.206 70.3919 321.12 70.4886 321.041 70.6104C320.969 70.7249 320.898 70.8682 320.826 71.04L320.364 72.1357C320.293 72.3148 320.196 72.501 320.074 72.6943C319.96 72.8805 319.834 73.056 319.698 73.2207C319.562 73.3854 319.419 73.5251 319.269 73.6396C319.118 73.7542 318.975 73.8258 318.839 73.8545C319.047 73.9261 319.24 74.0156 319.419 74.123C319.598 74.2305 319.777 74.3737 319.956 74.5527C320.135 74.7246 320.321 74.943 320.515 75.208C320.708 75.473 320.919 75.7988 321.148 76.1855L322.846 79H321.686L319.967 76.1426C319.766 75.8132 319.566 75.5303 319.365 75.2939C319.165 75.0576 318.95 74.8643 318.721 74.7139C318.499 74.5635 318.252 74.4525 317.979 74.3809C317.707 74.3092 317.399 74.2734 317.056 74.2734H316.927ZM325.843 69.6758C326.122 69.5397 326.387 69.4251 326.638 69.332C326.888 69.2318 327.132 69.153 327.368 69.0957C327.604 69.0384 327.841 68.9954 328.077 68.9668C328.313 68.9382 328.561 68.9238 328.818 68.9238C329.52 68.9238 330.168 69.0527 330.763 69.3105C331.364 69.5612 331.88 69.9157 332.31 70.374C332.746 70.8252 333.087 71.3623 333.33 71.9854C333.574 72.6084 333.695 73.2887 333.695 74.0264C333.695 74.7497 333.566 75.4264 333.309 76.0566C333.058 76.6868 332.711 77.2347 332.267 77.7002C331.83 78.1657 331.311 78.5309 330.709 78.7959C330.115 79.0609 329.47 79.1934 328.775 79.1934C328.532 79.1934 328.292 79.179 328.056 79.1504C327.826 79.1289 327.594 79.0859 327.357 79.0215C327.128 78.9642 326.888 78.889 326.638 78.7959C326.387 78.7028 326.122 78.5882 325.843 78.4521V84.0596H324.79V69.1172H325.843V69.6758ZM325.843 77.4209C326.101 77.557 326.34 77.6715 326.562 77.7646C326.785 77.8577 327.003 77.9365 327.218 78.001C327.433 78.0583 327.647 78.1012 327.862 78.1299C328.084 78.1514 328.321 78.1621 328.571 78.1621C329.166 78.1621 329.706 78.0654 330.193 77.8721C330.68 77.6787 331.096 77.4066 331.439 77.0557C331.79 76.6976 332.059 76.2715 332.245 75.7773C332.438 75.276 332.535 74.721 332.535 74.1123C332.535 73.5107 332.431 72.9557 332.224 72.4473C332.023 71.9388 331.74 71.502 331.375 71.1367C331.017 70.7643 330.587 70.4743 330.086 70.2666C329.585 70.0589 329.037 69.9551 328.442 69.9551C328.22 69.9551 328.009 69.9694 327.809 69.998C327.608 70.0195 327.404 70.0589 327.196 70.1162C326.996 70.1735 326.785 70.2487 326.562 70.3418C326.34 70.4349 326.101 70.5495 325.843 70.6855V77.4209ZM344.233 77.8828C343.646 78.334 343.045 78.667 342.429 78.8818C341.813 79.0895 341.147 79.1934 340.431 79.1934C339.715 79.1934 339.052 79.0645 338.443 78.8066C337.842 78.5417 337.323 78.1764 336.886 77.7109C336.449 77.2454 336.109 76.6904 335.865 76.0459C335.622 75.4014 335.5 74.6995 335.5 73.9404C335.5 73.2171 335.611 72.5511 335.833 71.9424C336.062 71.3265 336.377 70.7965 336.778 70.3525C337.187 69.9014 337.666 69.5505 338.218 69.2998C338.776 69.0492 339.382 68.9238 340.033 68.9238C340.563 68.9238 341.086 69.0169 341.602 69.2031C342.124 69.3893 342.593 69.6794 343.009 70.0732C343.424 70.46 343.761 70.9541 344.019 71.5557C344.276 72.1501 344.405 72.8626 344.405 73.6934H336.617C336.603 73.7865 336.596 73.8724 336.596 73.9512V74.209C336.596 74.7747 336.703 75.2975 336.918 75.7773C337.133 76.2572 337.423 76.6761 337.788 77.0342C338.153 77.3851 338.576 77.6608 339.056 77.8613C339.535 78.0618 340.037 78.1621 340.56 78.1621C341.218 78.1621 341.834 78.0475 342.407 77.8184C342.987 77.582 343.596 77.2061 344.233 76.6904V77.8828ZM343.159 72.8447C342.78 70.9183 341.738 69.9551 340.033 69.9551C339.625 69.9551 339.242 70.0231 338.884 70.1592C338.526 70.2881 338.203 70.4779 337.917 70.7285C337.638 70.972 337.398 71.2728 337.197 71.6309C336.997 71.9889 336.85 72.3936 336.757 72.8447H343.159ZM354.761 69.1172V79H353.708V69.9766H347.585V79H346.532V69.1172H354.761ZM364.665 70.9434L358.08 79.0859H357.489V69.1172H358.542V77.1953L365.127 69.1172H365.718V79H364.665V70.9434ZM377.115 69.1172V70.0947H372.711V79H371.658V70.0947H367.254V69.1172H377.115ZM386.923 77.8828C386.336 78.334 385.734 78.667 385.118 78.8818C384.502 79.0895 383.836 79.1934 383.12 79.1934C382.404 79.1934 381.742 79.0645 381.133 78.8066C380.531 78.5417 380.012 78.1764 379.575 77.7109C379.138 77.2454 378.798 76.6904 378.555 76.0459C378.311 75.4014 378.189 74.6995 378.189 73.9404C378.189 73.2171 378.3 72.5511 378.522 71.9424C378.752 71.3265 379.067 70.7965 379.468 70.3525C379.876 69.9014 380.356 69.5505 380.907 69.2998C381.466 69.0492 382.071 68.9238 382.723 68.9238C383.253 68.9238 383.775 69.0169 384.291 69.2031C384.814 69.3893 385.283 69.6794 385.698 70.0732C386.114 70.46 386.45 70.9541 386.708 71.5557C386.966 72.1501 387.095 72.8626 387.095 73.6934H379.307C379.292 73.7865 379.285 73.8724 379.285 73.9512V74.209C379.285 74.7747 379.393 75.2975 379.607 75.7773C379.822 76.2572 380.112 76.6761 380.478 77.0342C380.843 77.3851 381.265 77.6608 381.745 77.8613C382.225 78.0618 382.726 78.1621 383.249 78.1621C383.908 78.1621 384.524 78.0475 385.097 77.8184C385.677 77.582 386.285 77.2061 386.923 76.6904V77.8828ZM385.849 72.8447C385.469 70.9183 384.427 69.9551 382.723 69.9551C382.314 69.9551 381.931 70.0231 381.573 70.1592C381.215 70.2881 380.893 70.4779 380.606 70.7285C380.327 70.972 380.087 71.2728 379.887 71.6309C379.686 71.9889 379.539 72.3936 379.446 72.8447H385.849ZM400.619 70.0947C399.953 70.0947 399.337 70.1914 398.771 70.3848C398.213 70.571 397.729 70.8395 397.321 71.1904C396.913 71.5413 396.594 71.9603 396.365 72.4473C396.136 72.9342 396.021 73.4749 396.021 74.0693C396.021 74.6566 396.136 75.1937 396.365 75.6807C396.594 76.1676 396.913 76.5866 397.321 76.9375C397.729 77.2812 398.213 77.5498 398.771 77.7432C399.337 77.9365 399.953 78.0332 400.619 78.0332V70.0947ZM401.597 78.0332C402.263 78.0332 402.875 77.9365 403.434 77.7432C403.999 77.5498 404.486 77.2812 404.895 76.9375C405.303 76.5866 405.621 76.1676 405.851 75.6807C406.08 75.1865 406.194 74.6423 406.194 74.0479C406.194 73.4535 406.08 72.9163 405.851 72.4365C405.621 71.9495 405.303 71.5342 404.895 71.1904C404.486 70.8395 403.999 70.571 403.434 70.3848C402.875 70.1914 402.263 70.0947 401.597 70.0947V78.0332ZM401.597 84.0596H400.619V79C399.788 79 399.022 78.8818 398.32 78.6455C397.626 78.402 397.024 78.0654 396.516 77.6357C396.007 77.1989 395.61 76.6797 395.323 76.0781C395.044 75.4694 394.904 74.7998 394.904 74.0693C394.904 73.3317 395.044 72.6585 395.323 72.0498C395.61 71.4411 396.007 70.9219 396.516 70.4922C397.024 70.0553 397.626 69.7188 398.32 69.4824C399.022 69.2389 399.788 69.1172 400.619 69.1172V63.9932H401.597V69.1172C402.427 69.1172 403.19 69.2389 403.885 69.4824C404.587 69.7188 405.192 70.0553 405.7 70.4922C406.209 70.9219 406.603 71.4411 406.882 72.0498C407.168 72.6514 407.312 73.3174 407.312 74.0479C407.312 74.7855 407.168 75.4587 406.882 76.0674C406.603 76.6761 406.209 77.1989 405.7 77.6357C405.192 78.0654 404.587 78.402 403.885 78.6455C403.19 78.8818 402.427 79 401.597 79V84.0596ZM414.799 71.8242C414.799 70.4779 414.068 69.8047 412.607 69.8047C412.342 69.8047 412.088 69.8298 411.845 69.8799C411.608 69.9229 411.368 69.998 411.125 70.1055C410.889 70.2057 410.645 70.3346 410.395 70.4922C410.144 70.6497 409.875 70.8395 409.589 71.0615V69.9766C409.89 69.7904 410.176 69.6328 410.448 69.5039C410.72 69.3678 410.982 69.2568 411.232 69.1709C411.49 69.085 411.744 69.0241 411.995 68.9883C412.253 68.9453 412.514 68.9238 412.779 68.9238C413.094 68.9238 413.431 68.9632 413.789 69.042C414.147 69.1136 414.48 69.2461 414.788 69.4395C415.096 69.6328 415.35 69.8978 415.551 70.2344C415.758 70.5638 415.862 70.9863 415.862 71.502V77.6572C415.862 77.8577 415.88 77.9938 415.916 78.0654C415.952 78.1299 416.013 78.1621 416.099 78.1621C416.156 78.1621 416.238 78.137 416.346 78.0869C416.453 78.0296 416.571 77.9616 416.7 77.8828C416.829 77.7969 416.962 77.7038 417.098 77.6035C417.241 77.4961 417.377 77.3887 417.506 77.2812V78.1621L417.334 78.291C417.083 78.4772 416.868 78.6312 416.689 78.7529C416.51 78.8675 416.349 78.957 416.206 79.0215C416.07 79.0859 415.945 79.1289 415.83 79.1504C415.723 79.179 415.615 79.1934 415.508 79.1934C415.393 79.1934 415.293 79.1755 415.207 79.1396C415.128 79.1038 415.06 79.043 415.003 78.957C414.953 78.8639 414.91 78.7386 414.874 78.5811C414.845 78.4163 414.82 78.2122 414.799 77.9688C414.24 78.3984 413.717 78.71 413.23 78.9033C412.751 79.0967 412.242 79.1934 411.705 79.1934C411.333 79.1934 410.982 79.1289 410.652 79C410.33 78.8639 410.047 78.6849 409.804 78.4629C409.567 78.2337 409.381 77.9688 409.245 77.668C409.109 77.36 409.041 77.0342 409.041 76.6904C409.041 76.2607 409.116 75.8776 409.267 75.541C409.417 75.1973 409.625 74.8965 409.89 74.6387C410.162 74.3737 410.477 74.1517 410.835 73.9727C411.2 73.7865 411.594 73.6325 412.017 73.5107C412.446 73.3818 412.897 73.2852 413.37 73.2207C413.843 73.1491 414.319 73.1025 414.799 73.0811V71.8242ZM414.799 73.9619C414.154 73.9333 413.546 73.9798 412.973 74.1016C412.407 74.2161 411.909 74.3952 411.479 74.6387C411.057 74.8822 410.72 75.1794 410.47 75.5303C410.219 75.874 410.094 76.2607 410.094 76.6904C410.094 76.9196 410.144 77.1344 410.244 77.335C410.344 77.5355 410.48 77.7109 410.652 77.8613C410.824 78.0046 411.028 78.1191 411.265 78.2051C411.508 78.2839 411.77 78.3232 412.049 78.3232C412.285 78.3232 412.511 78.3018 412.726 78.2588C412.948 78.2087 413.166 78.1335 413.381 78.0332C413.603 77.9258 413.828 77.7933 414.058 77.6357C414.294 77.471 414.541 77.2741 414.799 77.0449V73.9619ZM420.976 64.7666C421.441 65.7477 422.146 66.2383 423.092 66.2383C423.564 66.2383 423.969 66.1237 424.306 65.8945C424.642 65.6582 424.95 65.2822 425.229 64.7666H426.078C425.77 65.6045 425.366 66.2311 424.864 66.6465C424.37 67.0618 423.786 67.2695 423.113 67.2695C422.741 67.2695 422.401 67.2015 422.093 67.0654C421.785 66.9294 421.506 66.7467 421.255 66.5176C421.011 66.2812 420.789 66.0127 420.589 65.7119C420.396 65.4111 420.224 65.096 420.073 64.7666H420.976ZM426.175 70.9434L419.59 79.0859H418.999V69.1172H420.052V77.1953L426.637 69.1172H427.228V79H426.175V70.9434ZM433.737 68.9238L437.98 79H436.949L433.383 70.6855L429.666 79H428.592L433.082 68.9238H433.737Z" fill="#868686"/>
<g clip-path="url(#clip0_479_4066)">
<path d="M364.643 191.926V151.823C364.643 150.753 363.796 149.862 362.731 149.862C361.667 149.862 360.819 150.731 360.819 151.823V189.988H308.145V131.504H341.001C342.045 131.504 342.913 130.635 342.913 129.543C342.913 128.452 342.066 127.583 341.001 127.583L306.232 127.582C305.189 127.582 304.32 128.451 304.32 129.543V191.926C304.32 192.996 305.168 193.886 306.232 193.886H362.73C363.774 193.887 364.643 192.996 364.643 191.926L364.643 191.926Z" fill="#3A3A3E"/>
<path d="M375.77 127.606H364.622V116.177C364.622 115.108 363.774 114.217 362.71 114.217C361.645 114.216 360.841 115.107 360.841 116.177V127.607L349.693 127.606C348.65 127.606 347.781 128.475 347.781 129.567C347.781 130.658 348.629 131.527 349.693 131.527H360.841L360.841 142.913C360.841 143.983 361.688 144.873 362.753 144.873C363.817 144.873 364.665 144.004 364.665 142.913V131.483H375.77C376.813 131.483 377.682 130.614 377.682 129.523C377.682 128.431 376.812 127.606 375.77 127.606Z" fill="#3A3A3E"/>
</g>
<defs>
<clipPath id="clip0_479_4066">
<rect width="74" height="80" fill="white" transform="translate(304 114)"/>
</clipPath>
</defs>
</svg>
